# xmcd CD database file
#
# Track frame offsets:
#	150
#	28865
#	53947
#	80555
#	107970
#	142350
#	174942
#	192702
#	216905
#	238392
#
# Disc length: 3514 seconds
#
# Revision: 0
# Processed by: cddbd v1.4PL0 Copyright (c) Steve Scherf et al.
# Submitted via: CDex 1.50Beta7
#
DISCID=a10db80a
DTITLE=Lars Andersson and The Baker Boys feat. Niklas Fredin - First Choice
DYEAR=1997
DGENRE=Jazz
TTITLE0=Vid Midnatt (Round Midnight)
TTITLE1=Please Fool Around With Me
TTITLE2=Hippy
TTITLE3=(The) Demon
TTITLE4=Whirly Breeze
TTITLE5=Hearts Never Lie
TTITLE6=Old K Blues
TTITLE7=First Choice
TTITLE8=Rearview Mirror
TTITLE9=Ooh-shoo-be-doo-bee
EXTD=YEAR: 1997
EXTT0=
EXTT1=
EXTT2=
EXTT3=
EXTT4=
EXTT5=
EXTT6=
EXTT7=
EXTT8=
EXTT9=
PLAYORDER=
